<svg xmlns="http://www.w3.org/2000/svg" version="1.1" xmlns:xlink="http://www.w3.org/1999/xlink" xmlns:svgjs="http://svgjs.com/svgjs" width="1000" height="109" viewBox="0 0 1000 109"><g transform="matrix(1,0,0,1,0.01659152166422473,-0.2046353637660161)"><svg xmlns="http://www.w3.org/2000/svg" version="1.1" xmlns:xlink="http://www.w3.org/1999/xlink" xmlns:svgjs="http://svgjs.com/svgjs" viewBox="0 0 447 49" data-background-color="#90adbb" preserveAspectRatio="xMidYMid meet" height="109" width="1000"><defs></defs><g id="tight-bounds" transform="matrix(1,0,0,1,-0.007416410183907374,0.09199204426178653)"><svg viewBox="0 0 448 48.816015911476406" height="48.816015911476406" width="448"><g><svg viewBox="0 0 2029.2880963419848 221.11999999999998" height="48.816015911476406" width="448"><g transform="matrix(1,0,0,1,235.3738368,30.559999999999988)"><svg viewBox="0 0 1793.9142595419848 160" height="160" width="1793.9142595419848"><g><svg viewBox="0 0 1793.9142595419848 160" height="160" width="1793.9142595419848"><g transform="matrix(1,0,0,1,4.462473282442602,0)"><svg viewBox="0 0 1784.9893129770996 160" height="160" width="1784.9893129770996"><g transform="matrix(1,0,0,1,0,0)"><svg viewBox="5.62 -46.44 533.665 47.16" width="1784.9893129770996" height="160" class="undefined-text-0" data-fill-palette-color="primary" data-stroke-palette-color="transparent" id="text-0" data-palette-color="#ec2028"><g><path d="M22.03-38.66L15.41-38.59L15.19-26.06L21.67-25.99L29.52-26.21L30.17-25.49L29.45-18.22L20.88-18.43L15.05-18.36L14.98-14.69L15.41 0L5.62 0L6.12-13.82L5.62-46.37L33.19-46.37L33.77-45.58L33.05-38.23L22.03-38.66ZM77.62-46.37L77.11-14.69L77.40 0L67.68 0L68.11-13.82L68.04-19.22L57.60-19.30L48.17-19.15L48.10-14.69L48.46 0L38.74 0L39.24-13.82L38.74-46.37L48.60-46.37L48.31-27.22L58.25-27.07L67.97-27.22L67.68-46.37L77.62-46.37ZM98.50-46.37L97.92-14.69L98.35 0L88.56 0L89.06-13.82L88.56-46.37L98.50-46.37ZM134.14-18.43Q139.75-9.50 145.30-2.30L145.30-2.30L145.15-1.22Q140.47 0.43 135.58 0.72L135.58 0.72L134.57-0.07Q129.38-9.00 126.14-15.62L126.14-15.62L119.16-15.62L119.16-14.69L119.59 0L109.80 0L110.30-13.82L109.80-46.37L127.58-46.44Q134.86-46.44 138.82-42.88Q142.78-39.31 142.78-32.69L142.78-32.69Q142.78-28.22 140.51-24.52Q138.24-20.81 134.14-18.43L134.14-18.43ZM119.59-38.95L119.30-23.18L126.43-22.90Q132.55-24.98 132.55-31.75L132.55-31.75Q132.55-35.42 130.57-37.26Q128.59-39.10 124.49-39.24L124.49-39.24L119.59-38.95Z" fill="#ec2028" data-fill-palette-color="primary" data-stroke-palette-color="transparent"></path><path d="M184.255 -24.05Q189.005 -22.9 191.275 -20.2Q193.535 -17.5 193.535 -13.1L193.535 -13.1Q193.535 0.36 172.445 0.36L172.445 0.36Q166.255 0.36 159.775 0L159.775 0L160.275 -13.82L159.775 -46.37L176.255 -46.44Q183.385 -46.44 187.345 -43.45Q191.305 -40.46 191.305 -34.85L191.305 -34.85Q191.305 -31.1 189.475 -28.3Q187.635 -25.49 184.255 -24.05L184.255 -24.05ZM181.29500000000002 -33.55Q181.29500000000002 -36.72 179.425 -38.05Q177.555 -39.38 172.875 -39.38L172.875 -39.38L169.345 -39.38L169.135 -26.78L175.895 -26.57Q178.635 -27.29 179.965 -28.94Q181.29500000000002 -30.6 181.29500000000002 -33.55L181.29500000000002 -33.55ZM174.095 -6.62Q178.635 -6.62 181.115 -8.42Q183.605 -10.22 183.605 -13.61L183.605 -13.61Q183.605 -18.72 176.975 -19.94L176.975 -19.94L168.985 -19.8L168.915 -14.69L169.135 -6.91Q171.655 -6.62 174.095 -6.62L174.095 -6.62ZM216.29500000000002 -7.06L226.085 -7.34L226.655 -6.77L226.015 0L201.095 0L201.45499999999998 -10.8L201.095 -36.36L226.375 -36.36L226.875 -35.64L226.29500000000002 -28.94L216.935 -29.3L210.175 -29.3L210.025 -21.96L216.505 -21.89L222.775 -22.1L223.275 -21.46L222.695 -14.62L215.85500000000002 -14.83L209.885 -14.83L209.815 -11.66L209.95499999999998 -7.06L216.29500000000002 -7.06ZM266.975 -36.58L266.475 -11.52L266.83500000000004 0L256.975 0L242.425 -22.54L241.925 -22.54L241.85500000000002 -12.74L242.135 0L233.935 0L234.29500000000002 -10.66L233.935 -36.36L243.725 -36.36L258.265 -13.82L258.915 -13.82L258.625 -36L266.975 -36.58ZM292.685 -36.86Q298.08500000000004 -36.86 302.765 -34.99L302.765 -34.99L301.175 -27.36L300.45500000000004 -27Q298.805 -28.15 296.575 -28.8Q294.33500000000004 -29.45 292.105 -29.45L292.105 -29.45Q287.71500000000003 -29.45 285.555 -26.89Q283.395 -24.34 283.395 -18.86L283.395 -18.86Q283.395 -6.98 292.53499999999997 -6.98L292.53499999999997 -6.98Q294.695 -6.98 297.005 -7.56Q299.305 -8.14 301.175 -9.14L301.175 -9.14L301.975 -8.71L301.255 -1.15Q297.005 0.58 291.96500000000003 0.58L291.96500000000003 0.58Q283.105 0.58 278.495 -4.18Q273.895 -8.93 273.895 -17.86L273.895 -17.86Q273.895 -26.93 278.78499999999997 -31.9Q283.685 -36.86 292.685 -36.86L292.685 -36.86ZM342.575 -36.36L342.075 -11.66L342.435 0L333.365 0L333.725 -10.8L333.655 -14.33L325.515 -14.4L318.245 -14.26L318.175 -11.66L318.53499999999997 0L309.45500000000004 0L309.815 -10.8L309.45500000000004 -36.36L318.675 -36.36L318.385 -21.96L326.095 -21.82L333.575 -21.89L333.365 -36.36L342.575 -36.36ZM390.385 -36.36L393.775 0L385.635 0L385.135 -11.02L383.905 -22.9L383.33500000000004 -22.9L375.33500000000004 -3.6L368.355 -3.6L361.225 -22.9L360.655 -22.9L359.355 -11.88L358.565 0L350.855 0L354.745 -36.36L365.405 -36.36L366.845 -31.03L372.095 -15.62L372.675 -15.62L378.365 -30.96L379.945 -36.36L390.385 -36.36ZM421.775 -36.36L433.375 0L424.225 0L423.21500000000003 -5.26L422.57500000000005 -7.34L415.225 -7.42L408.745 -7.27L408.245 -5.76L407.16499999999996 0L398.305 0L411.05499999999995 -36.36L421.775 -36.36ZM415.80499999999995 -14.11L420.625 -14.18L416.525 -28.08L415.94500000000005 -28.08L411.125 -14.18L415.80499999999995 -14.11ZM462.095 -14.33Q466.92499999999995 -7.34 471.095 -2.09L471.095 -2.09L471.025 -1.08Q466.56500000000005 0.29 462.245 0.58L462.245 0.58L460.94500000000005 -0.29Q456.91499999999996 -7.27 454.68499999999995 -11.74L454.68499999999995 -11.74L449.135 -11.74L449.135 -11.66L449.495 0L440.42499999999995 0L440.78499999999997 -10.8L440.42499999999995 -36.36L456.125 -36.43Q462.245 -36.43 465.595 -33.59Q468.93499999999995 -30.74 468.93499999999995 -25.49L468.93499999999995 -25.49Q468.93499999999995 -22.1 467.135 -19.19Q465.33500000000004 -16.27 462.095 -14.33L462.095 -14.33ZM449.495 -29.66L449.28499999999997 -18.65L454.68499999999995 -18.36Q457.135 -19.15 458.28499999999997 -20.66Q459.43499999999995 -22.18 459.43499999999995 -24.55L459.43499999999995 -24.55Q459.43499999999995 -27.14 457.92499999999995 -28.4Q456.41499999999996 -29.66 453.17499999999995 -29.81L453.17499999999995 -29.81L449.495 -29.66ZM495.93499999999995 -19.22Q502.495 -10.44 510.19500000000005 -1.94L510.19500000000005 -1.94L509.975 -0.86Q505.08500000000004 0.36 501.05499999999995 0.65L501.05499999999995 0.65L499.895 0.14Q492.775 -9.29 487.015 -18.07L487.015 -18.07L486.865 -11.66L487.225 0L478.155 0L478.515 -10.8L478.155 -36.36L487.375 -36.36L487.015 -19.94L496.94500000000005 -32.69L499.17499999999995 -36.36L509.115 -36.43L495.93499999999995 -19.22ZM528.485 -36.86Q533.665 -36.86 538.415 -35.06L538.415 -35.06L537.055 -27L535.755 -26.64Q533.455 -28.37 531.295 -29.23Q529.135 -30.1 527.335 -30.1L527.335 -30.1Q525.315 -30.1 524.165 -29.12Q523.015 -28.15 523.015 -26.78L523.015 -26.78Q523.015 -25.27 524.455 -24.3Q525.895 -23.33 528.985 -22.03L528.985 -22.03Q532.225 -20.66 534.275 -19.51Q536.335 -18.36 537.805 -16.31Q539.285 -14.26 539.285 -11.16L539.285 -11.16Q539.285 -8.06 537.665 -5.36Q536.045 -2.66 532.765 -1.01Q529.495 0.65 524.665 0.65L524.665 0.65Q522.075 0.65 519.015 0.11Q515.955 -0.43 513.075 -1.58L513.075 -1.58L514.295 -10.08L515.235 -10.73Q517.615 -8.57 520.565 -7.27Q523.515 -5.98 525.815 -5.98L525.815 -5.98Q527.835 -5.98 529.095 -6.98Q530.355 -7.99 530.355 -9.5L530.355 -9.5Q530.355 -11.09 528.875 -12.06Q527.405 -13.03 524.305 -14.26L524.305 -14.26Q521.065 -15.62 519.015 -16.81Q516.965 -18 515.485 -20.09Q514.015 -22.18 514.015 -25.27L514.015 -25.27Q514.015 -28.51 515.775 -31.18Q517.535 -33.84 520.815 -35.35Q524.095 -36.86 528.485 -36.86L528.485 -36.86Z " fill="#f6f6f6" data-fill-palette-color="secondary" data-stroke-palette-color="transparent"></path></g></svg></g></svg></g></svg></g></svg></g><g><svg viewBox="0 0 197.6016768 221.11999999999998" height="221.11999999999998" width="197.6016768"><g><svg version="1.1" xmlns="http://www.w3.org/2000/svg" xmlns:xlink="http://www.w3.org/1999/xlink" x="0" y="0" viewBox="0 0 89.364 100" enable-background="new 0 0 89.364 100" xml:space="preserve" height="221.11999999999998" width="197.6016768" class="icon-icon-0" fill="#f6f6f6" data-fill-palette-color="accent" data-stroke-palette-color="transparent" id="icon-0"><path fill="#f6f6f6" d="M65.959,54.254H47.874V36.17c0-2.66-0.666-4.256-3.191-4.256c-1.796,0-3.191,0.541-3.191,4.256v20.213
	c0,0.239,0.021,0.458,0.04,0.682c-0.014,0.127-0.04,0.248-0.04,0.381c0,0,0.052,0.539,0.381,1.17
	c0.497,1.285,1.466,2.021,2.811,2.021c0,0,0.114-0.018,0.269-0.05c0.248,0.03,0.509,0.05,0.796,0.05h20.213
	c2.658,0,4.254-0.664,4.254-3.191C70.213,55.652,69.673,54.254,65.959,54.254z" data-fill-palette-color="accent" data-stroke-palette-color="transparent"></path><path fill="#f6f6f6" d="M80.567,27.146l4.624-4.623c0.949-0.949,0.949-2.487,0-3.436l-6.872-6.873c-0.951-0.949-2.49-0.949-3.438,0
	l-4.884,4.883c-5.219-3.494-11.271-5.89-17.869-6.93V4.254h4.257c2.165,0,3.19-0.354,3.19-2.127c0-1.76-1.263-2.127-3.19-2.127
	H32.98c-1.829,0-3.191,0.299-3.191,2.127c0,1.896,1.463,2.127,3.191,2.127h5.319v5.753C16.214,12.969,0,31.161,0,54.254
	C0,79.523,19.409,100,44.682,100c25.273,0,44.682-20.477,44.682-45.746C89.364,43.932,86.12,34.589,80.567,27.146z M44.682,93.617
	c-21.284,0-38.298-18.083-38.298-39.362c0-21.278,17.014-38.296,38.298-38.296c21.283,0,38.298,17.019,38.298,38.296
	C82.98,75.534,65.965,93.617,44.682,93.617z" data-fill-palette-color="accent" data-stroke-palette-color="transparent"></path></svg></g></svg></g></svg></g></svg></g></svg></g></svg>